<?xml version="1.0" encoding="UTF-8" standalone="no"?>
<svg
   xmlns:dc="http://purl.org/dc/elements/1.1/"
   xmlns:cc="http://creativecommons.org/ns#"
   xmlns:rdf="http://www.w3.org/1999/02/22-rdf-syntax-ns#"
   xmlns:svg="http://www.w3.org/2000/svg"
   xmlns="http://www.w3.org/2000/svg"
   version="1.1"
   id="svg9905"
   viewBox="0 0 861.78364 857.26945"
   height="241.94049mm"
   width="243.21449mm">
  <title
     id="title10467">Abstract Eye</title>
  <defs
     id="defs9907" />
  <metadata
     id="metadata9910">
    <rdf:RDF>
      <cc:Work
         rdf:about="">
        <dc:format>image/svg+xml</dc:format>
        <dc:type
           rdf:resource="http://purl.org/dc/dcmitype/StillImage" />
        <dc:title>Abstract Eye</dc:title>
      </cc:Work>
    </rdf:RDF>
  </metadata>
  <g
     transform="translate(173.74896,-146.58462)"
     id="layer1">
    <g
       transform="matrix(0.475,0,0,0.475,153.87146,269.27717)"
       id="g9882">
      <path
         id="path9890"
         d="m 628.14276,1500.8268 c -32.6925,-2.724 -68.7077,-11.1456 -117.5,-27.4753 -25.5414,-8.5482 -40.27,-14.3137 -66.441,-26.0085 -24.7347,-11.0529 -28.9265,-13.2036 -56.5124,-28.9941 -29.6888,-16.9942 -41.4855,-24.3627 -59.7462,-37.3188 -19.902,-14.1206 -30.9209,-23.4631 -53.0624,-44.9893 -10.3244,-10.0375 -19.21906,-18.25 -19.76592,-18.25 -0.54686,0 -8.67755,3.8467 -18.0682,8.5481 -31.81312,15.9274 -75.21184,33.2614 -129.90388,51.8852 -35.77734,12.183 -54.16585,17.6606 -87.5,26.0645 -76.5719,19.3048 -106.3742,23.9956 -175.08071,27.557 -33.12997,1.7172 -82.91609,-0.912 -114.05581,-6.0235 -38.56815,-6.3308 -84.01612,-17.8463 -123.36348,-31.2576 -50.65609,-17.2658 -68.38224,-26.4608 -107.46058,-55.742 -29.56382,-22.1521 -43.9328,-35.4399 -60.05008,-55.5317 -25.47123,-31.7525 -48.27331,-74.6391 -61.97583,-116.5655 -8.88314,-27.1802 -17.33382,-66.9749 -20.69093,-97.4345 -1.78087,-16.1581 -1.78059,-73.36503 4.2e-4,-87.50003 4.4963,-35.6848 12.33217,-65.8995 25.12677,-96.8875 3.67844,-8.9091 3.71565,-9.8492 0.62852,-15.8809 -1.80049,-3.5179 -2.85913,-8.3229 -4.12696,-18.7316 -0.95625,-7.8508 -2.95624,-18.0814 -4.55342,-23.2922 -4.83057,-15.7598 -7.88778,-48.8238 -7.89437,-85.3782 -0.0149,-82.86485 17.68684,-174.21604 51.69949,-266.79879 48.33346,-131.56414 143.81328,-273.52946 255.78863,-380.32241 87.34732,-83.30475 174.70507,-145.79464 271.65248,-194.322 124.1763,-62.15689 241.66553,-97.4961 363.35586,-109.29265 55.7138,-5.40084 106.6778,-5.41954 163,-0.0598 123.5582,11.75806 236.9371,53.02321 324,117.92245 52.519,39.14917 94.2893,83.27417 131.3634,138.76858 51.7032,77.39191 82.63984,166.61157 92.67664,267.27502 2.1743,21.80781 3.0007,75.67437 1.5647,102 -3.4373,63.01496 -15.8915,131.57893 -28.49104,156.85074 -1.2749,2.55709 -2.8654,7.57426 -3.5344,11.14926 -0.6691,3.575 -2.1413,8.44463 -3.2716,10.8214 l -2.0552,4.32139 5.5553,14.17861 c 9.9271,25.33637 36.76464,98.6891 43.23804,118.1786 15.3187,46.1205 26.4943,95.7001 35.842,159.0107 9.1013,61.6423 13.1607,144.62873 9.0789,185.59923 -6.0523,60.7482 -23.228,121.7257 -47.9552,170.2513 -16.9284,33.221 -22.8753,44.4862 -26.4678,50.1388 -2.0974,3.3 -8.55184,13.65 -14.34324,23 -21.7519,35.1177 -39.6014,56.1631 -69.2005,81.5906 -5.5,4.7249 -15.175,13.7292 -21.5,20.0096 -19.4205,19.2836 -35.6022,29.9098 -70.1987,46.0983 -22.9624,10.7446 -30.3066,13.536 -50.8013,19.3084 -37.6195,10.5957 -59.9976,13.5648 -105.5,13.9974 -18.7,0.1778 -38.275,-0.033 -43.5,-0.4683 z"
         style="fill:#f6aec4" />
      <path
         id="path9888"
         d="m 638.64276,1500.1825 c -37.2832,-2.8184 -63.7897,-8.1104 -106.5,-21.2624 -34.0516,-10.4858 -53.9996,-17.9339 -85.7856,-32.0306 -23.1555,-10.2692 -28.1811,-12.8107 -53.0423,-26.8247 -28.1967,-15.8942 -50.4716,-29.8423 -68.3097,-42.774 -18.95,-13.7378 -27.9135,-21.4578 -49.3624,-42.5147 -9.35,-9.1791 -18.0629,-17.2486 -19.3619,-17.9323 -2.12625,-1.1191 -3.72264,-0.5444 -16,5.7602 -33.79679,17.3552 -76.10223,34.22 -142.1381,56.6625 -58.09215,19.7428 -137.04899,38.9789 -184.5,44.9493 -72.34608,9.1028 -140.33389,8.0726 -198,-3.0001 -37.44226,-7.1894 -74.33109,-16.9437 -109.41943,-28.9331 -50.82781,-17.3674 -66.33566,-25.5532 -108.30843,-57.1707 -35.3102,-26.5986 -53.46932,-45.5063 -74.25977,-77.3211 -37.27616,-57.0422 -58.74365,-122.1242 -65.57831,-198.811 -1.51131,-16.9573 -0.6536,-66.39913 1.41712,-81.68903 4.63042,-34.1904 13.47919,-66.1465 27.41347,-99 3.26583,-7.7 6.52309,-15.7887 7.23835,-17.9748 1.3671,-4.1784 6.54672,-14.3314 15.8277,-31.0252 34.89239,-62.7613 79.98286,-112.0237 148.8445,-162.61604 50.78881,-37.31431 133.25059,-85.09173 201.3248,-116.64533 59.33895,-27.50464 139.61059,-59.59276 177,-70.75473 6.875,-2.05241 13.01315,-4.23841 13.64034,-4.85778 0.62718,-0.61936 2.11144,-5.74304 3.29834,-11.38594 2.96749,-14.10831 9.30722,-36.9381 14.59788,-52.56787 4.69563,-13.87193 4.89958,-14.99084 9.50976,-52.17231 7.10275,-57.28424 11.32128,-84.87601 17.50601,-114.5 17.55072,-84.06543 39.81913,-140.75525 72.24844,-183.92648 9.59201,-12.76927 31.73186,-36.03873 45.69923,-48.03087 35.13219,-30.16387 73.19296,-50.24042 130.5,-68.83701 56.6859,-18.39502 98.5588,-24.92296 166,-25.87924 49.0163,-0.69502 72.4729,1.28009 109.5,9.22023 36.8118,7.89397 74.2307,21.7775 105,38.95818 28.4379,15.8789 40.801,23.82366 74.3571,47.7835 40.5207,28.93261 63.4098,47.46969 104.6429,84.74623 8.25,7.45837 21.3441,18.93925 29.0981,25.51307 7.7539,6.57381 19.4652,16.50683 26.0252,22.07337 13.6992,11.6247 42.7831,39.19856 46.1484,43.75238 7.626,10.31936 3.0019,23.37602 -9.7507,27.53196 -5.2567,1.71313 -5.6637,2.10609 -10.0356,9.69011 -12.9621,22.4853 -21.5984,33.04498 -47.4925,58.06925 -11.2711,10.89246 -20.4874,20.03641 -20.4806,20.3199 0.01,0.28348 4.0898,5.65113 9.0734,11.92811 26.3379,33.17346 49.808,70.29106 84.1533,133.08731 24.4323,44.67161 66.716,131.16974 66.7847,136.61908 0.013,1.03451 1.1772,4.58092 2.5869,7.88092 7.4645,17.47323 13.111,32.09988 28.37384,73.49924 23.7189,64.33596 30.3333,84.40726 38.392,116.50076 10.9191,43.4853 21.3717,103.5461 26.1049,150 4.3825,43.0112 6.6152,106.83143 4.618,132.00003 -4.0473,51.0015 -18.0452,110.3315 -36.2374,153.5909 -7.5892,18.0467 -32.0581,65.7098 -41.53644,80.9091 -3.2583,5.225 -9.502,15.2584 -13.8749,22.2964 -16.8737,27.158 -36.4135,50.6315 -58.4389,70.2036 -6.8083,6.05 -18.9337,17.3 -26.9452,25 -22.4967,21.6218 -34.9123,30.2308 -63.5665,44.0773 -24.7621,11.9656 -36.9272,16.9461 -53.369,21.8497 -38.2358,11.4032 -67.2007,15.585 -111.131,16.0445 -15.675,0.164 -30.75,0.1281 -33.5,-0.08 z M 31.12657,287.1812 c 40.00357,-59.92603 86.15942,-106.95148 138.01619,-140.61647 49.13215,-31.8962 99.9647,-52.50142 146,-59.18178 37.0117,-5.37091 95.3417,-4.53264 140,2.01196 33.4933,4.90839 68.4701,12.91573 93.6754,21.44538 l 14.8246,5.01677 26,0.45201 c 50.9316,0.88545 95.5036,4.65965 130.2861,11.03216 18.8634,3.45596 54.0715,11.6543 73.3594,17.08202 8.8227,2.48275 16.2715,4.28385 16.5529,4.00246 0.2814,-0.2814 -1.2081,-2.00188 -3.3101,-3.82329 -2.1019,-1.82141 -8.7867,-7.74546 -14.855,-13.16457 -6.0683,-5.41911 -18.0083,-16.07937 -26.5333,-23.68947 -19.5019,-17.40898 -36.6798,-31.49021 -59,-48.36404 -72.9677,-55.1628 -116.4049,-79.50256 -168.5941,-94.47068 -40.3643,-11.57664 -68.1405,-15.12289 -118.4512,-15.12289 -72.7777,0 -122.2555,8.38831 -186.07489,31.54658 C 182.28827,-0.2526 150.0691,19.85767 115.92428,54.4267 102.18643,68.33522 95.81958,76.09588 85.27074,91.79077 58.12699,132.17609 36.36377,197.50646 22.17712,281.18962 c -2.92625,17.26116 -3.53732,22.60115 -2.58631,22.60115 0.24643,0 5.43752,-7.47431 11.53576,-16.60957 z m 780.94979,-23.89043 c 8.8954,-8.25 19.317,-18.58137 23.1591,-22.95859 8.4701,-9.64991 22.331,-30.02675 21.6154,-31.77681 -1.3241,-3.2386 -30.9237,-17.70683 -51.2081,-25.03045 -12.4109,-4.48091 -15.7647,-5.32994 -48,-12.15146 -29.3459,-6.21008 -35.2551,-7.19607 -48,-8.0092 -4.95,-0.31581 -18.7934,-1.28457 -30.7631,-2.15281 -11.9697,-0.86823 -22.2097,-1.42974 -22.7556,-1.24779 -0.5458,0.18194 2.2726,2.28949 6.2632,4.68343 12.2172,7.32915 33.6511,22.53494 48.5269,34.42635 20.2599,16.19528 38.8735,33.41772 62.8142,58.11959 11.5029,11.86863 21.1979,21.47097 21.5445,21.33853 0.3465,-0.13243 7.9081,-6.99079 16.8035,-15.24079 z"
         style="fill:#d0789e" />
      <path
         id="path9886"
         d="m 637.64276,1499.6813 c -32.3866,-1.755 -62.2867,-7.7875 -106.9282,-21.5732 -29.7932,-9.2004 -52.7094,-17.6936 -78.6329,-29.1431 -27.8185,-12.2864 -36.4597,-16.6019 -59.9389,-29.9343 -57.6806,-32.7531 -81.6991,-50.2384 -116.5164,-84.8236 -10.3074,-10.2387 -18.1472,-17.0226 -25.00001,-21.6331 -27.04146,-18.193 -58.61393,-47.2029 -81.93332,-75.2832 -42.37035,-51.0207 -83.58995,-115.799 -119.79689,-188.2655 -7.76736,-15.546 -14.46563,-27.921 -14.88504,-27.5 -0.7692,0.7721 1.35251,18.2258 5.0163,41.2655 1.09327,6.875 4.48222,28.25 7.53099,47.5 10.59849,66.919 21.1529,119.2644 31.50006,156.2269 5.46275,19.5142 6.47485,27.7507 5.11487,41.6251 -1.99465,20.3493 -6.00913,30.9382 -14.59429,38.4952 -8.88094,7.8173 -19.2032,7.8401 -34.20804,0.075 -14.26234,-7.3804 -26.83705,-18.1282 -42.56365,-36.3796 -17.74139,-20.5897 -19.4506,-22.2683 -33.16458,-32.5715 -17.82265,-13.3899 -18.41723,-13.6386 -29.32092,-12.2623 -4.82075,0.6085 -11.67066,2.2826 -15.22204,3.7202 -13.19658,5.3421 -33.14289,18.5187 -46.31053,30.593 -7.3194,6.7116 -36.98168,39.911 -44.64412,49.9677 -15.31871,20.1052 -26.70024,24.4068 -40.30234,15.2318 -8.67998,-5.8548 -39.05527,-43.7388 -58.70919,-73.2219 -12.51582,-18.7751 -18.6812,-26.6458 -30.32962,-38.7187 -13.26621,-13.7496 -20.63814,-16.5377 -34.16124,-12.9199 -17.63971,4.719 -29.74731,17.2806 -48.1595,49.9653 -17.82194,31.6369 -28.48087,46.415 -41.84428,58.0153 -17.41345,15.1159 -26.48315,14.388 -35.40814,-2.842 -7.17726,-13.8559 -11.91734,-60.6295 -10.08448,-99.5104 1.42065,-30.1364 3.62901,-39.0389 10.27105,-41.4054 5.31586,-1.894 9.87777,3.8551 11.78055,14.8461 0.48272,2.7884 1.56802,18.7323 2.41179,35.431 1.4681,29.0548 4.63022,59.6808 6.72056,65.0904 l 0.98471,2.5483 2.95417,-3.5 c 5.78704,-6.8563 12.79545,-17.7848 24.36935,-38 18.521,-32.3492 27.47215,-44.3666 40.2534,-54.0422 15.3343,-11.6084 32.81282,-17.5352 49.36211,-16.7383 8.49146,0.4089 10.60849,0.9033 17.04231,3.9796 4.04052,1.9321 10.07635,5.5787 13.41295,8.1037 12.53257,9.4841 29.69022,29.5747 45.43128,53.1972 10.68936,16.0415 32.87744,45.1613 41.03656,53.8567 l 5.53439,5.8982 5.91173,-7.3775 c 8.79091,-10.9704 35.30908,-40.4295 43.15932,-47.9456 19.36518,-18.5411 46.87568,-36.0726 65.58339,-41.794 9.02935,-2.7615 22.74786,-4.4942 30.59477,-3.8643 8.46622,0.6795 19.14448,6.0173 33.68201,16.8365 16.59131,12.3477 21.49903,16.9011 34.23812,31.7661 6.42154,7.4931 15.06996,16.9104 19.2187,20.9273 7.60456,7.3629 18.19306,15.1966 20.5405,15.1966 1.73528,0 2.41034,-2.9234 3.15691,-13.6711 0.72255,-10.402 -0.1468,-15.9577 -5.23914,-33.4817 -5.2708,-18.1382 -7.8407,-28.9666 -14.79686,-62.3472 -7.96993,-38.2455 -8.78471,-42.784 -18.10218,-100.8334 -10.52108,-65.5477 -15.51375,-103.0124 -21.01123,-157.66623 -0.8575,-8.525 -2.2468,-22.25 -3.08733,-30.5 -1.82809,-17.9431 -4.03478,-29.0554 -9.51173,-47.8986 -26.11606,-89.8512 -33.59125,-128.9598 -38.91612,-203.6014 -3.37889,-47.3638 -2.22924,-93.92614 3.5678,-144.5 2.083,-18.17233 6.14088,-43.78624 7.90225,-49.88021 0.81389,-2.81588 3.51019,-13.44479 5.99179,-23.61979 2.48159,-10.175 6.93676,-26.15 9.90038,-35.5 5.56241,-17.54901 6.82302,-23.28108 8.68693,-39.5 5.74398,-49.9816 13.70044,-103.02896 19.94839,-133 C 15.19032,156.15614 39.06168,97.78881 74.64992,53.24837 91.21063,32.52182 118.25124,7.75084 141.64276,-8.12149 c 28.23037,-19.15573 51.98192,-30.41754 94.96727,-45.02876 61.32093,-20.84369 113.22403,-29.01179 184.53273,-29.04028 65.0708,-0.026 120.2857,10.72063 173,33.6714 54.6988,23.81481 133.9507,79.55624 206.4762,145.22403 9.3631,8.47777 28.2738,24.94282 42.0238,36.58901 29.885,25.31244 58.737,52.3387 62.2209,58.28366 2.0692,3.53068 2.4414,5.2427 2.082,9.57597 -0.6595,7.9532 -4.6854,12.27998 -13.9171,14.9574 -3.7271,1.08093 -4.5425,1.99794 -9.727,10.93981 -13.1178,22.62479 -24.6671,36.51234 -50.0559,60.19043 -9.4066,8.77272 -17.1012,16.64772 -17.099,17.5 0,0.85227 3.4274,5.82459 7.6117,11.04959 29.3888,36.69825 58.9697,84.42694 97.6141,157.5 23.4459,44.3342 51.3237,102.47685 54.3213,113.29418 2.3269,8.39716 3.5683,11.47341 5.5311,13.70582 2.2291,2.5354 6.7892,14.03031 23.60414,59.5 24.1836,65.3958 28.2166,77.1951 36.7662,107.5666 15.4945,55.0418 28.9233,134.4031 32.985,194.9334 5.0573,75.36773 4.5204,101.40173 -3.0094,145.94173 -9.8737,58.4036 -23.2317,99.6379 -47.1542,145.5583 -5.3008,10.175 -11.7649,22.6383 -14.3647,27.6962 -2.5999,5.0579 -7.6023,13.8329 -11.11644,19.5 -3.5141,5.6671 -9.9304,16.0016 -14.2584,22.9657 -18.142,29.1916 -38.9939,53.4725 -64.9065,75.5803 -5.5703,4.7524 -15.9778,14.3398 -23.1278,21.3054 -22.0317,21.4635 -36.4106,30.67 -76.5,48.9811 -17.2263,7.8683 -23.4052,10.179 -40,14.9587 -45.6751,13.1556 -89.7289,17.7629 -142.5,14.9031 z M 299.47826,1288.631 c 43.7547,-29.4091 78.8364,-60.6613 118.2483,-105.3402 16.6255,-18.8474 45.6636,-56.868 59.8117,-78.3134 20.4823,-31.047 43.036,-72.9155 53.4295,-99.1866 12.2374,-30.93173 21.8745,-65.77453 26.8291,-97.00003 2.5567,-16.113 2.5733,-63.4683 0.029,-83 -10.2015,-78.3151 -29.8312,-132.5273 -67.473,-186.34353 -31.5954,-45.17177 -72.5661,-87.42214 -116.2101,-119.83974 -34.2927,-25.4717 -77.2619,-48.58902 -114,-61.33164 -60.84152,-21.10292 -116.02061,-24.64182 -187,-11.99323 -14.29975,2.54823 -42.46642,8.47067 -60.99847,12.82579 -8.54412,2.00791 -9.64933,2.53111 -11,5.20727 -2.8619,5.67047 -1.63488,190.18226 1.55263,233.47508 0.26322,3.575 0.92564,14.825 1.47204,25 1.83564,34.1827 4.56744,75.715 6.05133,92 3.12809,34.3295 10.6823,94.741 12.96113,103.6511 5.71167,22.3325 36.72902,91.80593 60.42832,135.34893 58.57749,107.6251 109.21749,172.9749 167.53302,216.1976 15.0772,11.1751 35.7745,24.8024 37.6701,24.8024 0.8255,0 5.6249,-2.7719 10.6654,-6.1598 z M -30.83005,672.79077 c -0.61172,-16.775 -1.35332,-46.025 -1.64799,-65 -0.50277,-32.37461 -0.78364,-37.92889 -1.86343,-36.8491 -0.24044,0.24044 -1.17777,10.09235 -2.08295,21.89313 -1.81309,23.63697 -1.50048,45.21004 1.12821,77.8576 1.27264,15.80567 4.01121,41.31337 4.62395,43.06847 0.8368,2.3969 0.7675,-15.5961 -0.15779,-40.9701 z m 51.48914,-367.25 c 0.88533,-1.2375 5.75751,-8.55 10.82706,-16.25 21.81129,-33.12856 41.11617,-56.94417 68.14337,-84.06556 36.61578,-36.74339 71.71164,-61.72729 120.01324,-85.43455 35.05455,-17.20538 64.7103,-26.61123 99.5,-31.55821 27.2514,-3.87506 85.7724,-3.63161 120,0.4992 41.047,4.95381 85.9132,14.87427 116,25.64899 7.3801,2.64297 8.0516,2.69846 42,3.47061 33.8791,0.77058 38.8795,1.01442 62,3.02347 48.2155,4.18967 89.3443,11.92295 138.1721,25.97999 13.7733,3.96518 17.2735,4.62029 16.6612,3.11838 -0.1833,-0.44973 -4.1583,-4.14434 -8.8333,-8.21025 -4.675,-4.06592 -15.25,-13.4995 -23.5,-20.96352 -45.3675,-41.04534 -91.6594,-77.0744 -136.5,-106.2382 -67.4388,-43.86142 -126.9991,-62.98117 -206.5,-66.28968 -18.011,-0.74955 -64.5895,0.92791 -83.9137,3.02203 -41.3757,4.4838 -80.5757,13.71986 -121.18085,28.55188 -50.5737,18.47326 -80.46783,36.63868 -114.27755,69.4417 -28.01482,27.18067 -46.78151,55.88277 -62.44454,95.50372 -10.951,27.70148 -20.18852,59.14757 -28.20069,96 -3.57935,16.4634 -11.48267,61.19953 -11.48267,64.99674 0,2.6475 1.52214,2.54069 3.51633,-0.24674 z m 790.90037,-40.21913 c 8.4246,-7.95803 18.7587,-18.12719 22.9646,-22.59813 8.1218,-8.63353 23.6187,-30.81534 23.6187,-33.80715 0,-2.33556 -17.4142,-12.29494 -33.4363,-19.12261 -19.9504,-8.50172 -33.7812,-12.61576 -63.5637,-18.90737 -33.6063,-7.09939 -37.0051,-7.6455 -56,-8.99779 -7.975,-0.56775 -21.475,-1.58182 -30,-2.25348 -19.529,-1.53862 -22.2326,-1.57971 -22.6559,-0.34434 -0.1885,0.55 3.7276,3.41388 8.7023,6.36417 18.9874,11.2606 45.1877,30.72653 69.4536,51.60166 4.95,4.25831 21.15,20.04471 36,35.08087 14.85,15.03616 27.5848,27.36431 28.2996,27.39588 0.7148,0.0316 8.1925,-6.45369 16.6171,-14.41171 z"
         style="fill:#866ea7" />
      <path
         id="path9884"
         d="m -212.40102,1365.9101 c -8.73654,-3.9685 -36.76871,-37.6034 -59.6893,-71.6193 -24.14777,-35.8372 -40.21826,-53.1266 -52.60454,-56.5945 -9.02372,-2.5265 -25.09087,2.3858 -35.16238,10.7503 -10.39706,8.635 -17.65155,18.6995 -33.09927,45.9205 -16.26248,28.6567 -26.33746,42.3833 -38.8326,52.9074 -8.90051,7.4965 -12.49069,9.4215 -17.67025,9.4744 -9.0729,0.093 -16.08131,-9.5393 -19.36117,-26.609 -5.04901,-26.277 -6.95205,-59.5906 -5.11307,-89.5062 1.65963,-26.9979 3.92835,-34.8429 10.07636,-34.8429 6.45419,0 8.75115,8.4337 10.07717,37 1.19962,25.8434 3.39927,52.861 5.41412,66.5 1.95519,13.2352 2.29973,14.5 3.94984,14.5 3.44996,0 16.27124,-18.4467 30.52648,-43.9201 5.05388,-9.031 11.74117,-20.281 14.86063,-25 7.24884,-10.9656 20.57482,-24.8647 29.57803,-30.85 13.61012,-9.048 33.85749,-14.3995 46.59373,-12.3151 21.67395,3.5471 42.94127,23.2355 72.46502,67.0852 13.96154,20.7361 41.69694,56.0807 45.00284,57.3493 1.69237,0.6494 2.2686,0.1168 9.02628,-8.3431 12.74205,-15.9516 41.64079,-46.9855 51.13011,-54.9079 19.95001,-16.6556 42.92096,-29.9579 59.0615,-34.202 11.54539,-3.0358 27.50328,-3.6521 34.8372,-1.3453 6.17348,1.9418 16.12599,8.0469 28.60918,17.5496 13.07401,9.9524 19.20719,15.864 32.76831,31.5847 13.82153,16.0226 22.54939,24.3885 31.88709,30.5647 6.14523,4.0646 8.65975,4.6328 9.60477,2.1701 1.25751,-3.2771 2.62615,-19.8248 2.04872,-24.7704 -0.33069,-2.8324 -3.24297,-14.8247 -6.47175,-26.6497 -8.93056,-32.7071 -20.63923,-89.6314 -27.97361,-136 -2.21842,-14.025 -5.82229,-36.525 -8.00861,-50 -7.4339,-45.8176 -12.95712,-90.14053 -18.50505,-148.50003 -0.88886,-9.35 -2.70838,-25.325 -4.04338,-35.5 -3.79207,-28.9021 -7.26753,-58.974 -8.89902,-77 -2.44623,-27.0278 -3.10928,-37.7786 -8.04853,-130.5 -2.19794,-41.26053 -3.88187,-183.14619 -2.522,-212.5 1.17554,-25.375 4.29653,-63.24244 6.57662,-79.79517 0.77997,-5.66235 2.12819,-16.46235 2.99605,-24 2.82557,-24.54105 10.26211,-78.26886 13.45425,-97.20483 13.16475,-78.09399 33.63118,-143.17238 58.80941,-187 20.73693,-36.09668 55.966,-73.22142 92.6946,-97.68248 28.02741,-18.66611 52.82035,-30.33509 94.41338,-44.43637 58.85012,-19.95197 116.09262,-28.8791 185.08662,-28.86479 61.4665,0.0127 120.4514,11.86777 171.9474,34.55867 54.8611,24.17375 136.3336,81.84053 207.5526,146.90714 7.7,7.03482 25.0002,22.06672 38.4449,33.40421 13.4447,11.33749 32.652,28.39667 42.6829,37.90929 22.3903,21.2334 24.5344,24.76004 20.7713,34.16489 -1.7718,4.42817 -5.5592,7.23439 -12.1169,8.97782 -3.7902,1.0077 -4.5937,1.80244 -7.9273,7.84148 -6.5555,11.87582 -19.3117,29.98257 -27.8143,39.48088 -4.5489,5.08159 -15.9815,16.43134 -25.4057,25.22166 -9.4242,8.79032 -17.1349,16.26353 -17.1349,16.60713 0,0.89295 -32.2466,29.67755 -47.34,42.25764 -16.8158,14.0156 -27.5149,21.56581 -55.16,38.92587 -12.65,7.9437 -32.135,20.58637 -43.3,28.09482 -31.5158,21.19426 -56.0445,32.24339 -82.7,37.25282 -15.1081,2.83929 -57.7095,2.59965 -80.5,-0.45284 -57.9134,-7.75672 -141.6073,-32.11172 -203.5637,-59.23724 -36.1184,-15.81318 -70.86446,-28.34969 -88.57961,-31.95981 -11.96877,-2.43907 -29.33573,-2.59935 -40.99622,-0.37835 -10.75795,2.04909 -20.83744,1.56186 -24.51671,-1.18511 -7.62855,-5.69553 -9.08185,-14.05941 -3.96122,-22.79711 8.23305,-14.04863 38.97538,-46.18662 61.10363,-63.87766 48.79915,-39.01379 127.94843,-86.05413 186.86653,-111.05927 35.3494,-15.00244 91.7093,-31.31309 124.6473,-36.07312 30.2803,-4.37596 39.1508,-4.86106 77.3427,-4.22966 20.2634,0.33501 42.0884,1.06786 48.5,1.62856 6.4115,0.56069 17.2823,1.50112 24.1573,2.08984 41.593,3.56167 83.2723,11.61742 131.6325,25.44181 10.5229,3.0081 19.4104,5.46928 19.75,5.46928 2.3968,0 -0.6496,-3.81515 -8.1325,-10.18448 -4.8125,-4.09634 -18.364,-16.09514 -30.1145,-26.66401 -42.1029,-37.86901 -77.0423,-65.31886 -122.6355,-96.34755 -67.5095,-45.94394 -123.869,-66.28252 -202,-72.89628 -15.5586,-1.31704 -69.2549,-0.65719 -88,1.08139 -42.9522,3.98374 -77.888,11.17121 -116.50139,23.96826 -48.16666,15.96314 -81.17953,32.81592 -110.99861,56.66381 -11.39452,9.1128 -36.00556,33.85451 -44.14448,44.37886 -20.83695,26.94404 -34.3886,53.55081 -47.87708,94 -10.74711,32.22841 -18.12901,61.60881 -25.37648,101 -6.47646,35.20065 -17.14528,124.97554 -21.67091,182.3542 -2.04145,25.88283 -2.11643,31.49594 -1.61148,120.6458 0.29127,51.425 1,100.7 1.57496,109.5 0.57496,8.8 1.74244,28.6 2.59442,44 4.09794,74.0732 6.24229,98.5632 14.53502,166 2.16427,17.6 4.63558,39.425 5.49178,48.5 6.60209,69.97623 10.05433,95.55343 27.0622,200.50003 6.16566,38.045 18.38588,96.8289 24.94185,119.9797 7.16751,25.3103 8.04265,31.5065 6.71164,47.5203 -1.76525,21.2381 -6.4491,32.7435 -16.06758,39.4683 -3.91131,2.7347 -5.08701,3.0317 -12,3.0317 -6.80291,0 -8.55261,-0.4243 -15.57511,-3.7773 -15.42977,-7.367 -30.4822,-20.2965 -48.57363,-41.7227 -12.01608,-14.231 -19.67059,-21.434 -33.44572,-31.4728 -13.73869,-10.0122 -16.33161,-10.9289 -26.84185,-9.4899 -16.21954,2.2208 -33.40493,11.1214 -54.22755,28.0853 -11.97229,9.7537 -34.01337,33.4459 -52.22964,56.1422 -5.19339,6.4706 -10.89051,12.8692 -12.66027,14.219 -7.40641,5.6492 -14.98336,6.8925 -22.15387,3.6355 z M 461.14276,411.29993 c 0,-0.26996 -4.6546,-5.10746 -10.3436,-10.75 -11.1505,-11.05943 -20.0656,-23.49929 -24.288,-33.89068 -3.0888,-7.60156 -10.7452,-41.7432 -13.0893,-58.36848 -1.2531,-8.88717 -1.6904,-19.00388 -1.6857,-39 0.01,-24.503 0.2528,-28.4999 2.6712,-43.21842 3.0637,-18.64646 6.0325,-28.32577 12.3306,-40.20133 2.4988,-4.71181 4.0858,-8.7992 3.6037,-9.28139 -2.496,-2.496 -60.0177,22.80826 -90.2219,39.68933 -45.8213,25.60941 -96.56285,59.17032 -123.46568,81.66122 -13.0598,10.91806 -29.88867,27.43101 -29.15901,28.61162 0.31611,0.51149 5.87866,1.21433 12.36122,1.56187 14.95263,0.80164 27.79114,3.7716 51.78647,11.97987 24.3695,8.33626 31.7279,11.2022 61.5,23.95291 37.2978,15.97381 85.0134,32.18631 124.5,42.30182 20.8285,5.33575 23.5,5.89866 23.5,4.95166 z m 123.259,-3.46399 c 13.5281,-2.21572 38.8945,-15.61998 50.9547,-26.92574 8.0029,-7.50229 15.264,-17.99416 18.3579,-26.52621 5.6328,-15.53335 8.0843,-67.45415 4.1091,-87.02831 -2.1696,-10.68318 -7.6338,-27.40229 -12.1138,-37.06491 -4.7497,-10.24451 -18.6647,-30.47542 -24.8385,-36.1127 -7.3802,-6.73881 -19.9925,-15.29982 -25.7796,-17.49875 -5.7653,-2.19066 -20.3645,-3.64294 -21.3061,-2.11946 -0.3512,0.56825 0.6835,6.59017 2.2993,13.38205 2.5314,10.64056 6.2729,34.32955 11.1902,70.84886 0.7035,5.225 1.2796,18.05 1.2802,28.5 0,22.52548 -1.3968,30.35436 -7.8575,44 -5.0413,10.64765 -10.3602,16.96856 -17.6995,21.0337 -4.8826,2.70442 -6.1941,2.9663 -14.8554,2.9663 -8.5748,0 -10.145,-0.30562 -16.1234,-3.13821 -15.0551,-7.13322 -22.7983,-19.00848 -29.8748,-45.8171 -5.3099,-20.11617 -6.383,-28.41759 -6.2751,-48.54469 0.185,-34.50875 7.5341,-66.71595 19.4194,-85.10479 2.2279,-3.447 3.6048,-6.54429 3.1233,-7.02579 -1.1298,-1.12982 -19.718,0.66251 -28.1678,2.71601 -11.2352,2.73041 -22.1271,8.56788 -28.0227,15.01858 -6.5762,7.19548 -15.3171,24.87655 -17.4984,35.39599 -4.6545,22.44636 -5.8868,54.05374 -3.119,80 1.5007,14.06777 8.4803,48.11029 11.5089,56.13364 2.5383,6.72468 11.3982,19.06636 18.224,25.38581 6.3017,5.8343 13.8853,9.82486 33.935,17.85699 14.3976,5.76784 24.7238,8.42669 36.9383,9.51111 13.3671,1.18675 35.4052,1.26909 42.1913,0.15762 z m 115.1218,-50.15338 c 21.4735,-13.46587 32.3491,-21.11824 46.5478,-32.75243 29.4063,-24.09498 83.7712,-74.01939 93.8011,-86.13936 5.9296,-7.1653 16.0789,-21.70673 18.6262,-26.68665 0.8965,-1.75266 1.3842,-3.82713 1.0838,-4.60993 -0.8026,-2.0914 -20.2626,-12.90418 -32.9397,-18.30257 -25.1972,-10.72996 -32.6297,-12.8708 -75.9856,-21.88655 -22.2914,-4.63543 -32.5427,-5.86393 -75.0144,-8.98956 -23.5995,-1.73676 -51.5,-2.04539 -51.5,-0.56968 0,0.52528 3.4875,3.61 7.75,6.85492 10.7862,8.21125 18.8519,17.17199 28.3112,31.45289 16.2956,24.60189 25.4548,50.19516 28.9996,81.03267 2.6647,23.1811 -1.7339,73.6587 -7.7951,89.45446 -1.0161,2.64783 2.5393,0.90927 18.1151,-8.85821 z"
         style="fill:#0a070a" />
    </g>
  </g>
</svg>
